<svg width="73" height="72" viewBox="0 0 73 72" fill="none" xmlns="http://www.w3.org/2000/svg">
<path d="M45.0942 12.78C44.4983 13.8471 43.9674 14.9491 43.5042 16.08C38.9524 15.3602 34.3159 15.3602 29.7642 16.08C29.3009 14.9491 28.77 13.8471 28.1742 12.78C23.8865 13.5126 19.7184 14.8246 15.7842 16.68C8.74897 26.8329 5.55846 39.1589 6.78415 51.45C11.3689 54.8966 16.5145 57.5252 21.9942 59.22C23.2419 57.5718 24.3555 55.8262 25.3242 54C23.5364 53.3408 21.818 52.5068 20.1942 51.51C20.6395 51.2137 21.0608 50.8826 21.4542 50.52C26.1895 52.8009 31.3781 53.9854 36.6342 53.9854C41.8902 53.9854 47.0788 52.8009 51.8141 50.52C52.2341 50.88 52.6541 51.21 53.0742 51.51C51.4414 52.4989 49.7248 53.3422 47.9442 54.03C48.8727 55.8976 49.9565 57.6839 51.1842 59.37C56.6569 57.6811 61.7937 55.0518 66.3642 51.6C67.6193 39.3066 64.4262 26.9705 57.3642 16.83C53.4741 14.9362 49.3472 13.574 45.0942 12.78ZM26.6742 44.43C25.1729 44.3222 23.7718 43.6371 22.7649 42.5183C21.758 41.3996 21.2237 39.9343 21.2742 38.43C21.2161 36.9237 21.7478 35.4543 22.7562 34.3338C23.7646 33.2134 25.1701 32.5304 26.6742 32.43C28.1782 32.5304 29.5837 33.2134 30.5921 34.3338C31.6005 35.4543 32.1322 36.9237 32.0742 38.43C32.1322 39.9363 31.6005 41.4058 30.5921 42.5262C29.5837 43.6466 28.1782 44.3296 26.6742 44.43ZM46.5942 44.43C45.0929 44.3222 43.6918 43.6371 42.6849 42.5183C41.678 41.3996 41.1437 39.9343 41.1942 38.43C41.1361 36.9237 41.6678 35.4543 42.6762 34.3338C43.6846 33.2134 45.0901 32.5304 46.5942 32.43C48.101 32.5229 49.5111 33.2037 50.521 34.3258C51.5309 35.448 52.0599 36.9218 51.9942 38.43C52.0599 39.9382 51.5309 41.412 50.521 42.5342C49.5111 43.6563 48.101 44.3371 46.5942 44.43Z" fill="#002BFF"/>
</svg>
