<svg width="75" height="72" viewBox="0 0 75 72" fill="none" xmlns="http://www.w3.org/2000/svg">
<path d="M67.8098 30.1245H65.3049V30H37.3171V42H54.8919C52.3279 48.9855 45.4382 54 37.3171 54C27.0129 54 18.6585 45.9405 18.6585 36C18.6585 26.0595 27.0129 18 37.3171 18C42.0734 18 46.4007 19.731 49.6955 22.5585L58.4914 14.073C52.9374 9.0795 45.5082 6 37.3171 6C20.1434 6 6.21951 19.4325 6.21951 36C6.21951 52.5675 20.1434 66 37.3171 66C54.4907 66 68.4146 52.5675 68.4146 36C68.4146 33.9885 68.2001 32.025 67.8098 30.1245Z" fill="#FFC107"/>
<path d="M9.80505 22.0365L20.0222 29.265C22.7867 22.662 29.482 18 37.3171 18C42.0734 18 46.4007 19.731 49.6955 22.5585L58.4914 14.073C52.9374 9.0795 45.5082 6 37.3171 6C25.3725 6 15.0139 12.5055 9.80505 22.0365Z" fill="#FF3D00"/>
<path d="M37.3171 66C45.3496 66 52.6482 63.0345 58.1664 58.212L48.5417 50.355C45.3147 52.7226 41.3714 54.0031 37.3171 54C29.2286 54 22.3607 49.0245 19.7734 42.081L9.63248 49.6185C14.7791 59.334 25.231 66 37.3171 66Z" fill="#4CAF50"/>
<path d="M67.8098 30.1245H65.3049V30H37.3171V42H54.8919C53.6654 45.3246 51.4561 48.2298 48.5371 50.3565L48.5417 50.3535L58.1664 58.2105C57.4854 58.8075 68.4146 51 68.4146 36C68.4146 33.9885 68.2001 32.025 67.8098 30.1245Z" fill="#1976D2"/>
</svg>
