<svg width="1077" height="388" viewBox="0 0 1077 388" fill="none" xmlns="http://www.w3.org/2000/svg">
<path d="M904.231 245.381L738.194 98.864C785.313 150.291 760.631 233.738 904.231 245.381ZM872.819 121.181C872.819 121.181 893.013 178.43 998.469 193.955L872.819 121.181ZM65.0687 387.047L0 284.194L83.0188 298.748L17.95 225.005H121.162L67.3125 148.35L134.625 136.706L179.5 99.8344L141.356 50.3484L275.981 163.875L477.919 278.372L641.712 346.294L809.994 364.73L904.231 387.047H65.0687Z" fill="#8BCE4A"/>
<path d="M486.894 0.862488L507.087 76.5469L563.181 125.062H525.038L650.688 200.747L567.669 185.222L632.738 266.728L758.388 307.481L711.269 323.006L852.625 355.027L940.131 387.047H1077V359.878L926.669 326.887L890.769 311.362L863.844 323.006L738.194 228.886L612.544 103.716L560.938 69.7547L486.894 0.862488Z" fill="#8BCE4A"/>
</svg>
