<svg width="50" height="50" viewBox="0 0 50 50" fill="none" xmlns="http://www.w3.org/2000/svg">
<path opacity="0.3" d="M12.5 41.6667H37.5V20.8333H12.5V41.6667ZM25 27.0833C27.2917 27.0833 29.1667 28.9583 29.1667 31.25C29.1667 33.5417 27.2917 35.4167 25 35.4167C22.7083 35.4167 20.8333 33.5417 20.8333 31.25C20.8333 28.9583 22.7083 27.0833 25 27.0833Z" fill="black"/>
<path d="M37.5 16.6667H35.4167V12.5C35.4167 6.75001 30.75 2.08334 25 2.08334C19.25 2.08334 14.5833 6.75001 14.5833 12.5V16.6667H12.5C10.2083 16.6667 8.33334 18.5417 8.33334 20.8333V41.6667C8.33334 43.9583 10.2083 45.8333 12.5 45.8333H37.5C39.7917 45.8333 41.6667 43.9583 41.6667 41.6667V20.8333C41.6667 18.5417 39.7917 16.6667 37.5 16.6667ZM18.75 12.5C18.75 9.04168 21.5417 6.25001 25 6.25001C28.4583 6.25001 31.25 9.04168 31.25 12.5V16.6667H18.75V12.5ZM37.5 41.6667H12.5V20.8333H37.5V41.6667ZM25 35.4167C27.2917 35.4167 29.1667 33.5417 29.1667 31.25C29.1667 28.9583 27.2917 27.0833 25 27.0833C22.7083 27.0833 20.8333 28.9583 20.8333 31.25C20.8333 33.5417 22.7083 35.4167 25 35.4167Z" fill="black"/>
</svg>
