<svg width="54" height="19" viewBox="0 0 54 19" fill="none" xmlns="http://www.w3.org/2000/svg">
<g clip-path="url(#clip0_35_226)">
<path d="M27.9275 6.04986C27.8967 8.68605 30.0923 10.1571 31.7463 11.0317C33.4456 11.9291 34.0164 12.5046 34.0097 13.3072C33.997 14.5353 32.6542 15.0774 31.3976 15.0984C29.2054 15.1353 27.9307 14.4561 26.9173 13.9424L26.1276 17.9528C27.1443 18.4612 29.0269 18.9046 30.9791 18.9241C35.5617 18.9241 38.5598 16.4692 38.576 12.663C38.594 7.83242 32.4192 7.56505 32.4614 5.40592C32.4759 4.75122 33.0516 4.05257 34.313 3.87493C34.9374 3.78519 36.6609 3.71652 38.6151 4.69307L39.382 0.812952C38.3311 0.397699 36.9805 7.24792e-05 35.2989 7.24792e-05C30.9857 7.24792e-05 27.952 2.48839 27.9275 6.04986ZM46.7518 0.33429C45.915 0.33429 45.2098 0.864 44.8951 1.67688L38.3491 18.6391H42.9283L43.8396 15.906H49.4353L49.9639 18.6391H54L50.478 0.33429H46.7518ZM47.3924 5.2791L48.7139 12.1527H45.0946L47.3924 5.2791ZM22.3754 0.334518L18.7658 18.6388H23.1295L26.7374 0.334061L22.3754 0.334518ZM15.9201 0.334518L11.3782 12.7933L9.54091 2.19972C9.32534 1.01715 8.47399 0.33429 7.52857 0.33429H0.103992L0 0.865831C1.52423 1.22477 3.25603 1.8037 4.30523 2.42315C4.94733 2.80154 5.13042 3.13233 5.34136 4.03151L8.8212 18.6391H13.4325L20.5023 0.33429L15.9201 0.334518Z" fill="url(#paint0_linear_35_226)"/>
</g>
<defs>
<linearGradient id="paint0_linear_35_226" x1="2482.6" y1="56.8856" x2="2542.03" y2="-1886.36" gradientUnits="userSpaceOnUse">
<stop stop-color="#222357"/>
<stop offset="1" stop-color="#254AA5"/>
</linearGradient>
<clipPath id="clip0_35_226">
<rect width="54" height="19" fill="white"/>
</clipPath>
</defs>
</svg>
