<svg width="37" height="27" viewBox="0 0 37 27" fill="none" xmlns="http://www.w3.org/2000/svg">
<g clip-path="url(#clip0_35_228)">
<path d="M6.72659 26.8657V25.0787C6.72659 24.3935 6.2823 23.9469 5.52076 23.9469C5.14007 23.9469 4.72757 24.066 4.44198 24.4532C4.21998 24.1256 3.90273 23.9469 3.42679 23.9469C3.1094 23.9469 2.7923 24.0362 2.53836 24.3638V24.0064H1.87207V26.8657H2.53836V25.2871C2.53836 24.7809 2.82395 24.5425 3.26824 24.5425C3.71224 24.5425 3.93453 24.8106 3.93453 25.2871V26.8657H4.60082V25.2871C4.60082 24.7809 4.91792 24.5425 5.33041 24.5425C5.7747 24.5425 5.9967 24.8106 5.9967 25.2871V26.8657H6.72659ZM16.5939 24.0064H15.5152V23.1427H14.849V24.0064H14.2461V24.5722H14.8488V25.8829C14.8488 26.5382 15.1344 26.9253 15.8959 26.9253C16.1815 26.9253 16.4986 26.836 16.7209 26.7169L16.5304 26.1807C16.3401 26.2998 16.1181 26.3297 15.9594 26.3297C15.6421 26.3297 15.5152 26.151 15.5152 25.853V24.5722H16.5939V24.0064ZM22.2416 23.9468C21.8609 23.9468 21.6071 24.1256 21.4484 24.3638V24.0064H20.7821V26.8657H21.4484V25.2574C21.4484 24.7809 21.6704 24.5128 22.0829 24.5128C22.2098 24.5128 22.3685 24.5427 22.4954 24.5724L22.6857 23.9767C22.5588 23.9469 22.3685 23.9469 22.2416 23.9469M13.7067 24.2448C13.3893 24.0363 12.9452 23.947 12.4692 23.947C11.7079 23.947 11.2003 24.3044 11.2003 24.8703C11.2003 25.347 11.581 25.6149 12.2472 25.7043L12.5645 25.7342C12.9135 25.7936 13.1039 25.883 13.1039 26.032C13.1039 26.2404 12.8501 26.3894 12.4058 26.3894C11.9617 26.3894 11.6126 26.2404 11.3905 26.0916L11.0732 26.5681C11.4223 26.8063 11.8982 26.9254 12.374 26.9254C13.2624 26.9254 13.7702 26.5383 13.7702 26.0021C13.7702 25.4958 13.3577 25.2277 12.723 25.1384L12.4058 25.1086C12.1202 25.0787 11.8982 25.0193 11.8982 24.8406C11.8982 24.6321 12.1202 24.5129 12.4692 24.5129C12.8501 24.5129 13.2308 24.6618 13.4211 24.7512L13.7067 24.2448ZM31.4111 23.947C31.0302 23.947 30.7764 24.1257 30.6177 24.364V24.0066H29.9515V26.8659H30.6177V25.2575C30.6177 24.781 30.8399 24.5129 31.2522 24.5129C31.3793 24.5129 31.538 24.5428 31.6649 24.5725L31.8552 23.9769C31.7283 23.947 31.538 23.947 31.4111 23.947ZM22.9079 25.4362C22.9079 26.3 23.5424 26.9254 24.526 26.9254C24.9702 26.9254 25.2874 26.8362 25.6047 26.5979L25.2874 26.0916C25.0336 26.2702 24.7798 26.3595 24.4942 26.3595C23.9549 26.3595 23.5742 26.0021 23.5742 25.4362C23.5742 24.9002 23.9549 24.5427 24.4942 24.5129C24.7798 24.5129 25.0336 24.6022 25.2874 24.781L25.6047 24.2747C25.2874 24.0363 24.9702 23.947 24.526 23.947C23.5424 23.947 22.9079 24.5725 22.9079 25.4362ZM29.0632 25.4362V24.0066H28.3969V24.364C28.1747 24.096 27.8575 23.947 27.445 23.947C26.5884 23.947 25.9221 24.5725 25.9221 25.4362C25.9221 26.3 26.5884 26.9254 27.445 26.9254C27.8891 26.9254 28.2065 26.7766 28.3969 26.5085V26.8659H29.0632V25.4362ZM26.62 25.4362C26.62 24.9299 26.9691 24.5129 27.5401 24.5129C28.0795 24.5129 28.4603 24.9002 28.4603 25.4362C28.4603 25.9426 28.0795 26.3595 27.5401 26.3595C26.9691 26.3297 26.62 25.9426 26.62 25.4362ZM18.6563 23.947C17.7679 23.947 17.1333 24.5427 17.1333 25.4362C17.1333 26.3298 17.7678 26.9254 18.688 26.9254C19.1321 26.9254 19.5764 26.8063 19.9255 26.5383L19.6081 26.0916C19.3543 26.2702 19.037 26.3894 18.7198 26.3894C18.3073 26.3894 17.8948 26.2107 17.7996 25.7042H20.0524V25.4661C20.0842 24.5427 19.5131 23.947 18.6563 23.947ZM18.6562 24.4831C19.0685 24.4831 19.3543 24.7215 19.4176 25.1683H17.8312C17.8947 24.781 18.1803 24.4831 18.6562 24.4831ZM35.1865 25.4362V22.8748H34.5202V24.364C34.2981 24.096 33.9808 23.947 33.5684 23.947C32.7117 23.947 32.0454 24.5725 32.0454 25.4362C32.0454 26.3 32.7117 26.9254 33.5684 26.9254C34.0126 26.9254 34.3299 26.7766 34.5202 26.5085V26.8659H35.1865V25.4362ZM32.7435 25.4362C32.7435 24.9299 33.0924 24.5129 33.6636 24.5129C34.203 24.5129 34.5837 24.9002 34.5837 25.4362C34.5837 25.9426 34.203 26.3595 33.6636 26.3595C33.0924 26.3297 32.7435 25.9426 32.7435 25.4362ZM10.4702 25.4362V24.0066H9.80395V24.364C9.5818 24.096 9.26455 23.947 8.85206 23.947C7.99543 23.947 7.32914 24.5725 7.32914 25.4362C7.32914 26.3 7.99543 26.9254 8.85206 26.9254C9.29635 26.9254 9.6136 26.7766 9.80395 26.5085V26.8659H10.4702V25.4362ZM7.99543 25.4362C7.99543 24.9299 8.34447 24.5129 8.91551 24.5129C9.4549 24.5129 9.83574 24.9002 9.83574 25.4362C9.83574 25.9426 9.4549 26.3595 8.91551 26.3595C8.34447 26.3297 7.99543 25.9426 7.99543 25.4362Z" fill="black"/>
<path d="M13.4844 2.29346H23.4787V19.1516H13.4844V2.29346Z" fill="#FF5F00"/>
<path d="M14.1191 10.7225C14.1191 7.29733 15.8324 4.25922 18.4657 2.29337C16.5305 0.863729 14.0875 0 11.4223 0C5.10817 0 0 4.79528 0 10.7225C0 16.6496 5.10817 21.4451 11.4222 21.4451C14.0873 21.4451 16.5303 20.5813 18.4657 19.1515C15.8324 17.2156 14.1191 14.1477 14.1191 10.7225Z" fill="#EB001B"/>
<path d="M36.9633 10.7225C36.9633 16.6496 31.8551 21.4451 25.5411 21.4451C22.876 21.4451 20.433 20.5813 18.4976 19.1515C21.1627 17.1858 22.8443 14.1477 22.8443 10.7225C22.8443 7.29733 21.1309 4.25922 18.4976 2.29337C20.4328 0.863729 22.876 0 25.5411 0C31.8551 0 36.9633 4.82513 36.9633 10.7225Z" fill="#F79E1B"/>
</g>
<defs>
<clipPath id="clip0_35_228">
<rect width="37" height="27" fill="white"/>
</clipPath>
</defs>
</svg>
