<svg width="37" height="27" viewBox="0 0 37 27" fill="none" xmlns="http://www.w3.org/2000/svg">
<g clip-path="url(#clip0_35_233)">
<path d="M23.5023 19.1733H13.4976V2.29468H23.5023V19.1733Z" fill="#6C6BBD"/>
<path d="M14.1327 10.7345C14.1327 7.31049 15.8403 4.26057 18.4997 2.29514C16.555 0.857894 14.1005 0 11.4333 0C5.11872 0 0 4.80586 0 10.7345C0 16.6629 5.11872 21.4688 11.4333 21.4688C14.1006 21.4688 16.555 20.6109 18.4997 19.1737C15.8403 17.2082 14.1327 14.1583 14.1327 10.7345Z" fill="#D32011"/>
<path d="M36.9999 10.7345C36.9999 16.6629 31.8812 21.4688 25.5667 21.4688C22.8993 21.4688 20.4449 20.6109 18.4995 19.1737C21.1596 17.2082 22.8672 14.1583 22.8672 10.7345C22.8672 7.31049 21.1596 4.26057 18.4995 2.29514C20.4449 0.857894 22.8995 0 25.5667 0C31.8812 0 36.9999 4.80586 36.9999 10.7345Z" fill="#0099DF"/>
<path d="M26.8875 23.9427C27.0205 23.9427 27.2117 23.9666 27.3578 24.0204L27.1543 24.6047C27.0147 24.5508 26.8751 24.533 26.7414 24.533C26.3096 24.533 26.0936 24.795 26.0936 25.266V26.8643H25.4328V24.0143H26.0871V24.3603C26.2587 24.1099 26.5065 23.9427 26.8875 23.9427ZM24.4463 24.5808H23.3666V25.8685C23.3666 26.1545 23.4743 26.3456 23.8051 26.3456C23.9767 26.3456 24.1925 26.2917 24.3889 26.1845L24.5792 26.7149C24.3699 26.8519 24.0398 26.936 23.7541 26.936C22.9726 26.936 22.7 26.5422 22.7 25.8802V24.5808H22.0836V24.0143H22.7V23.1497H23.3666V24.0143H24.4463V24.5808ZM15.992 25.1889C16.0626 24.7774 16.3288 24.4969 16.7991 24.4969C17.2243 24.4969 17.4976 24.7473 17.5674 25.1889H15.992ZM18.2538 25.4394C18.2472 24.5507 17.6627 23.9427 16.8114 23.9427C15.9224 23.9427 15.3 24.5508 15.3 25.4392C15.3 26.3449 15.9478 26.9352 16.8565 26.9352C17.3138 26.9352 17.7325 26.828 18.101 26.5361L17.7769 26.0768C17.5232 26.2678 17.1989 26.375 16.8944 26.375C16.469 26.375 16.0815 26.1901 15.9863 25.6776H18.2407C18.2472 25.5997 18.2538 25.5225 18.2538 25.4394ZM21.1559 24.7418C20.9719 24.634 20.5974 24.4968 20.2099 24.4968C19.8478 24.4968 19.6319 24.6224 19.6319 24.8313C19.6319 25.0216 19.8603 25.0755 20.146 25.111L20.4572 25.1527C21.118 25.2428 21.5178 25.5049 21.5178 26.0058C21.5178 26.5483 21.0096 26.9359 20.1336 26.9359C19.6378 26.9359 19.1805 26.8165 18.8184 26.566L19.1297 26.0829C19.3521 26.2439 19.6829 26.3811 20.1401 26.3811C20.5909 26.3811 20.8322 26.2563 20.8322 26.0351C20.8322 25.8748 20.6607 25.7847 20.2986 25.7376L19.9875 25.6959C19.3077 25.6058 18.9392 25.3198 18.9392 24.8551C18.9392 24.2887 19.4349 23.9427 20.2034 23.9427C20.6861 23.9427 21.1245 24.0445 21.4415 24.2409L21.1559 24.7418ZM29.3016 24.5315C29.1658 24.5315 29.04 24.5542 28.923 24.5986C28.8097 24.6416 28.7068 24.7057 28.6205 24.7869C28.5337 24.8701 28.4655 24.9687 28.4199 25.077C28.3711 25.1896 28.3472 25.3137 28.3472 25.4489C28.3472 25.5847 28.3711 25.7081 28.4199 25.8208C28.4686 25.9334 28.5355 26.0304 28.6205 26.1108C28.7068 26.1921 28.8097 26.2561 28.923 26.2992C29.04 26.3442 29.1658 26.366 29.3016 26.366C29.4375 26.366 29.5641 26.3443 29.6803 26.2992C29.7941 26.2563 29.8975 26.1922 29.9843 26.1108C30.0708 26.0304 30.1378 25.9334 30.1872 25.8208C30.2359 25.7081 30.2599 25.5847 30.2599 25.4489C30.2599 25.3137 30.2359 25.1896 30.1872 25.077C30.1378 24.9644 30.0708 24.8675 29.9843 24.7869C29.8976 24.7055 29.7942 24.6414 29.6805 24.5986C29.5601 24.5534 29.4314 24.5307 29.3018 24.5317M29.3018 23.9428C29.5374 23.9428 29.7555 23.9811 29.9561 24.0582C30.1501 24.1306 30.327 24.2382 30.4767 24.3748C30.624 24.5104 30.7409 24.6723 30.8205 24.8511C30.9033 25.0348 30.9448 25.2341 30.9448 25.449C30.9448 25.6639 30.9033 25.8632 30.8205 26.0468C30.7409 26.2258 30.624 26.388 30.4765 26.5238C30.3306 26.6583 30.1567 26.7635 29.9562 26.8405C29.7553 26.917 29.5374 26.9552 29.3018 26.9552C29.0662 26.9552 28.8481 26.917 28.6475 26.8405C28.4469 26.7635 28.2746 26.6583 28.1292 26.5238C27.9827 26.3876 27.8663 26.2254 27.7867 26.0468C27.7038 25.8632 27.6624 25.6639 27.6624 25.449C27.6624 25.2341 27.7038 25.0348 27.7867 24.8512C27.8663 24.6728 27.9827 24.5109 28.1292 24.3748C28.2779 24.2381 28.4541 24.1304 28.6475 24.0582C28.8481 23.9811 29.0662 23.9428 29.3018 23.9428ZM12.1333 25.4392C12.1333 24.9384 12.4831 24.5269 13.0544 24.5269C13.6005 24.5269 13.969 24.9207 13.969 25.4394C13.969 25.9579 13.6005 26.3511 13.0544 26.3511C12.4831 26.3511 12.1333 25.9402 12.1333 25.4392ZM14.5914 25.4394V24.0145H13.9312V24.3605C13.7212 24.1039 13.4042 23.9428 12.9724 23.9428C12.1211 23.9428 11.4543 24.5686 11.4543 25.4394C11.4543 26.3096 12.1211 26.936 12.9724 26.936C13.4042 26.936 13.721 26.775 13.9312 26.5184V26.8644H14.5914V25.4394ZM10.8697 26.8644V25.0757C10.8697 24.4021 10.4124 23.9489 9.67603 23.9428C9.28854 23.9367 8.8879 24.05 8.60881 24.4499C8.39938 24.1339 8.0687 23.9428 7.60489 23.9428C7.28129 23.9428 6.96361 24.0322 6.71574 24.3659V24.0145H6.05566V26.8644H6.72224V25.2846C6.72224 24.7897 7.01448 24.5271 7.46513 24.5271C7.90364 24.5271 8.12607 24.7952 8.12607 25.2785V26.8644H8.7928V25.2844C8.7928 24.7896 9.09805 24.5269 9.53569 24.5269C9.9872 24.5269 10.2031 24.795 10.2031 25.2783V26.8644H10.8697Z" fill="#110F0D"/>
</g>
<defs>
<clipPath id="clip0_35_233">
<rect width="37" height="27" fill="white"/>
</clipPath>
</defs>
</svg>
