<svg width="41" height="40" viewBox="0 0 41 40" fill="none" xmlns="http://www.w3.org/2000/svg">
<g clip-path="url(#clip0_23_40)">
<path d="M25.625 23.3333C27.8261 23.3335 29.9422 24.1626 31.532 25.6478C33.1218 27.133 34.0626 29.1596 34.1581 31.305L34.1667 31.6667V33.3333C34.1669 34.1743 33.8414 34.9843 33.2553 35.6009C32.6692 36.2176 31.8658 36.5953 31.0062 36.6583L30.75 36.6667H6.83333C5.97135 36.6669 5.14111 36.3493 4.50906 35.7775C3.87701 35.2057 3.48985 34.4219 3.42521 33.5833L3.41666 33.3333V31.6667C3.41679 29.5192 4.26663 27.4547 5.78896 25.9037C7.31128 24.3527 9.38857 23.4349 11.5876 23.3417L11.9583 23.3333H25.625ZM35.875 21.6667C36.3281 21.6667 36.7626 21.8423 37.083 22.1548C37.4033 22.4674 37.5833 22.8913 37.5833 23.3333C37.5833 23.7754 37.4033 24.1993 37.083 24.5119C36.7626 24.8244 36.3281 25 35.875 25H34.1667C33.7136 25 33.2791 24.8244 32.9587 24.5119C32.6383 24.1993 32.4583 23.7754 32.4583 23.3333C32.4583 22.8913 32.6383 22.4674 32.9587 22.1548C33.2791 21.8423 33.7136 21.6667 34.1667 21.6667H35.875ZM18.7917 3.33334C21.0571 3.33334 23.2297 4.21132 24.8315 5.77412C26.4334 7.33692 27.3333 9.45654 27.3333 11.6667C27.3333 13.8768 26.4334 15.9964 24.8315 17.5592C23.2297 19.122 21.0571 20 18.7917 20C16.5263 20 14.3537 19.122 12.7518 17.5592C11.1499 15.9964 10.25 13.8768 10.25 11.6667C10.25 9.45654 11.1499 7.33692 12.7518 5.77412C14.3537 4.21132 16.5263 3.33334 18.7917 3.33334ZM35.875 16.6667C36.3281 16.6667 36.7626 16.8423 37.083 17.1548C37.4033 17.4674 37.5833 17.8913 37.5833 18.3333C37.5833 18.7754 37.4033 19.1993 37.083 19.5119C36.7626 19.8244 36.3281 20 35.875 20H32.4583C32.0053 20 31.5707 19.8244 31.2504 19.5119C30.93 19.1993 30.75 18.7754 30.75 18.3333C30.75 17.8913 30.93 17.4674 31.2504 17.1548C31.5707 16.8423 32.0053 16.6667 32.4583 16.6667H35.875ZM35.875 11.6667C36.3104 11.6671 36.7292 11.8298 37.0458 12.1214C37.3624 12.413 37.553 12.8116 37.5785 13.2357C37.604 13.6597 37.4626 14.0773 37.1831 14.4031C36.9037 14.7288 36.5072 14.9382 36.0749 14.9883L35.875 15H30.75C30.3146 14.9995 29.8958 14.8369 29.5792 14.5453C29.2625 14.2536 29.072 13.8551 29.0465 13.431C29.021 13.0069 29.1624 12.5894 29.4419 12.2636C29.7213 11.9379 30.1178 11.7285 30.5501 11.6783L30.75 11.6667H35.875Z" fill="black"/>
</g>
<defs>
<clipPath id="clip0_23_40">
<rect width="41" height="40" fill="white"/>
</clipPath>
</defs>
</svg>
