<svg width="73" height="72" viewBox="0 0 73 72" fill="none" xmlns="http://www.w3.org/2000/svg">
<path d="M57.6342 12H15.6342C14.5733 12 13.5559 12.4214 12.8057 13.1716C12.0556 13.9217 11.6342 14.9391 11.6342 16V58C11.6342 59.0609 12.0556 60.0783 12.8057 60.8284C13.5559 61.5786 14.5733 62 15.6342 62H57.6342C58.695 62 59.7124 61.5786 60.4626 60.8284C61.2127 60.0783 61.6342 59.0609 61.6342 58V16C61.6342 14.9391 61.2127 13.9217 60.4626 13.1716C59.7124 12.4214 58.695 12 57.6342 12Z" fill="#61B2E4"/>
<path d="M37.5692 62.009H47.0692" stroke="white" stroke-width="2" stroke-miterlimit="10"/>
<path d="M49.1342 26.844H53.8222V19.813C50.6962 19.813 38.1962 16.688 38.1962 29.969V34.656H31.9462V42.469H38.1962V61.033L46.0092 61.019V42.47H53.0402L53.8212 34.657H46.0092V29.97C46.0092 26.845 48.3532 26.844 49.1342 26.844Z" fill="white"/>
<path d="M46.2532 62H58.4082C59.2637 62 60.0843 61.6601 60.6893 61.0551C61.2943 60.4501 61.6342 59.6296 61.6342 58.774V15.226C61.6342 14.3704 61.2943 13.5499 60.6893 12.9449C60.0843 12.3399 59.2637 12 58.4082 12H14.8602C14.0046 12 13.184 12.3399 12.579 12.9449C11.974 13.5499 11.6342 14.3704 11.6342 15.226V58.774C11.6342 59.6296 11.974 60.4501 12.579 61.0551C13.184 61.6601 14.0046 62 14.8602 62H38.3362" stroke="black" stroke-width="2" stroke-miterlimit="10"/>
<path d="M46.2522 62V42.208H53.3772L54.1692 34.291H46.2522V29.541C46.2522 26.374 48.6272 26.374 49.4192 26.374H54.1692V19.25C50.9692 18.926 38.3352 16.084 38.3352 29.542V34.292H32.0022V42.209H38.3352V62" stroke="black" stroke-width="2" stroke-linecap="round" stroke-linejoin="round"/>
</svg>
