<svg width="62" height="62" viewBox="0 0 62 62" fill="none" xmlns="http://www.w3.org/2000/svg">
<path d="M33.6555 5.16667C36.5618 5.17442 38.0369 5.18992 39.3104 5.22609L39.8116 5.24417C40.3903 5.26484 40.9612 5.29067 41.6509 5.32167C44.3996 5.45084 46.2751 5.88484 47.9207 6.52292C49.6257 7.17909 51.062 8.06775 52.4984 9.5015C53.812 10.7929 54.8284 12.355 55.4769 14.0792C56.115 15.7248 56.549 17.6003 56.6782 20.3515C56.7092 21.0387 56.735 21.6096 56.7557 22.1908L56.7712 22.692C56.8099 23.963 56.8254 25.4381 56.8306 28.3443L56.8332 30.2715V33.6557C56.8395 35.54 56.8197 37.4243 56.7738 39.308L56.7583 39.8092C56.7376 40.3904 56.7118 40.9613 56.6808 41.6485C56.5516 44.3998 56.1124 46.2727 55.4769 47.9208C54.8303 49.6459 53.8136 51.2084 52.4984 52.4985C51.2066 53.8117 49.6446 54.828 47.9207 55.4771C46.2751 56.1152 44.3996 56.5492 41.6509 56.6783C41.038 56.7072 40.4248 56.733 39.8116 56.7558L39.3104 56.7713C38.0369 56.8075 36.5618 56.8256 33.6555 56.8308L31.7284 56.8333H28.3468C26.4616 56.8398 24.5765 56.82 22.6919 56.7739L22.1907 56.7584C21.5774 56.7352 20.9643 56.7085 20.3514 56.6783C17.6027 56.5492 15.7272 56.1152 14.079 55.4771C12.3551 54.8296 10.7936 53.813 9.50395 52.4985C8.18915 51.2076 7.17178 49.6454 6.52278 47.9208C5.8847 46.2753 5.4507 44.3998 5.32153 41.6485C5.29275 41.0355 5.26691 40.4224 5.24403 39.8092L5.23111 39.308C5.18351 37.4243 5.16198 35.54 5.16653 33.6557V28.3443C5.15932 26.4601 5.17827 24.5758 5.22336 22.692L5.24145 22.1908C5.26211 21.6096 5.28795 21.0387 5.31895 20.3515C5.44811 17.6003 5.88211 15.7273 6.5202 14.0792C7.16891 12.3533 8.18831 10.7906 9.50653 9.5015C10.7959 8.18781 12.3563 7.1713 14.079 6.52292C15.7272 5.88484 17.6001 5.45084 20.3514 5.32167C21.0385 5.29067 21.612 5.26484 22.1907 5.24417L22.6919 5.22867C24.5756 5.18277 26.4599 5.16297 28.3442 5.16925L33.6555 5.16667ZM30.9999 18.0833C27.5742 18.0833 24.2887 19.4442 21.8664 21.8665C19.4441 24.2889 18.0832 27.5743 18.0832 31C18.0832 34.4257 19.4441 37.7111 21.8664 40.1335C24.2887 42.5558 27.5742 43.9167 30.9999 43.9167C34.4256 43.9167 37.711 42.5558 40.1333 40.1335C42.5557 37.7111 43.9165 34.4257 43.9165 31C43.9165 27.5743 42.5557 24.2889 40.1333 21.8665C37.711 19.4442 34.4256 18.0833 30.9999 18.0833ZM30.9999 23.25C32.0176 23.2498 33.0254 23.4501 33.9658 23.8394C34.9061 24.2288 35.7605 24.7995 36.4803 25.519C37.2001 26.2385 37.7711 27.0928 38.1607 28.033C38.5504 28.9732 38.751 29.981 38.7512 30.9987C38.7513 32.0165 38.551 33.0243 38.1617 33.9646C37.7724 34.9049 37.2017 35.7594 36.4821 36.4792C35.7626 37.1989 34.9084 37.7699 33.9681 38.1596C33.0279 38.5492 32.0202 38.7498 31.0024 38.75C28.947 38.75 26.9758 37.9335 25.5224 36.4801C24.069 35.0267 23.2524 33.0554 23.2524 31C23.2524 28.9446 24.069 26.9733 25.5224 25.5199C26.9758 24.0665 28.947 23.25 31.0024 23.25M44.5649 14.2083C43.7085 14.2083 42.8872 14.5486 42.2816 15.1541C41.676 15.7597 41.3358 16.5811 41.3358 17.4375C41.3358 18.2939 41.676 19.1153 42.2816 19.7209C42.8872 20.3265 43.7085 20.6667 44.5649 20.6667C45.4214 20.6667 46.2427 20.3265 46.8483 19.7209C47.4539 19.1153 47.7941 18.2939 47.7941 17.4375C47.7941 16.5811 47.4539 15.7597 46.8483 15.1541C46.2427 14.5486 45.4214 14.2083 44.5649 14.2083Z" fill="black"/>
</svg>
