<svg width="62" height="62" viewBox="0 0 62 62" fill="none" xmlns="http://www.w3.org/2000/svg">
<path d="M31.0026 5.16667C45.2703 5.16667 56.8359 16.7323 56.8359 31C56.8359 45.2678 45.2703 56.8333 31.0026 56.8333C26.4372 56.8407 21.9523 55.6325 18.0084 53.3329L5.17956 56.8333L8.67223 43.9993C6.37072 40.0543 5.1616 35.5673 5.16923 31C5.16923 16.7323 16.7348 5.16667 31.0026 5.16667ZM22.1986 18.8583L21.6819 18.879C21.3474 18.8994 21.0205 18.9873 20.7209 19.1373C20.4407 19.296 20.1848 19.4944 19.9614 19.7263C19.6514 20.0183 19.4757 20.2714 19.2871 20.5168C18.3316 21.7592 17.8172 23.2844 17.825 24.8517C17.8301 26.1175 18.1608 27.3498 18.6775 28.5019C19.7341 30.8321 21.4726 33.2992 23.7666 35.5854C24.3195 36.1357 24.862 36.6885 25.4458 37.2026C28.2962 39.7122 31.693 41.522 35.3658 42.4881L36.8331 42.7128C37.3111 42.7387 37.789 42.7025 38.2695 42.6793C39.0218 42.6404 39.7565 42.4367 40.4214 42.0825C40.7597 41.9083 41.0898 41.7186 41.4108 41.5142C41.4108 41.5142 41.5219 41.4418 41.7337 41.2817C42.0825 41.0233 42.2969 40.8399 42.5862 40.5377C42.8006 40.3155 42.9866 40.0546 43.1287 39.7575C43.3302 39.3364 43.5317 38.533 43.6144 37.8639C43.6764 37.3524 43.6583 37.0734 43.6506 36.9003C43.6402 36.6239 43.4103 36.3372 43.1597 36.2158L41.6562 35.5415C41.6562 35.5415 39.4087 34.5624 38.0344 33.9373C37.8906 33.8745 37.7365 33.8386 37.5797 33.8313C37.403 33.8132 37.2244 33.8331 37.056 33.8897C36.8875 33.9463 36.7332 34.0382 36.6032 34.1594C36.5903 34.1543 36.4172 34.3015 34.5495 36.5645C34.4423 36.7086 34.2946 36.8174 34.1253 36.8772C33.956 36.937 33.7727 36.9451 33.5988 36.9003C33.4305 36.8552 33.2656 36.7982 33.1054 36.7298C32.7851 36.5955 32.674 36.5438 32.4544 36.4508C30.9717 35.8038 29.599 34.9296 28.3856 33.8598C28.0601 33.5756 27.7579 33.2656 27.4479 32.9659C26.4316 31.9926 25.5458 30.8915 24.8129 29.6903L24.6605 29.4448C24.551 29.2799 24.4625 29.102 24.397 28.9153C24.2988 28.5355 24.5546 28.2307 24.5546 28.2307C24.5546 28.2307 25.1823 27.5435 25.4742 27.1715C25.7584 26.8098 25.9986 26.4585 26.1536 26.2079C26.4585 25.7171 26.5541 25.2133 26.3939 24.8233C25.6706 23.0563 24.9214 21.297 24.1516 19.5507C23.9991 19.2045 23.5471 18.9565 23.1363 18.9074C22.9968 18.8919 22.8573 18.8764 22.7178 18.8661C22.3709 18.8489 22.0232 18.8523 21.6767 18.8764L22.1986 18.8583Z" fill="black"/>
</svg>
