<svg width="1436" height="417" viewBox="0 0 1436 417" fill="none" xmlns="http://www.w3.org/2000/svg">
<path d="M0 235.776C0 235.776 81.0282 232.868 168.809 183.444C247.586 138.864 382.633 63.2737 450.157 62.3046C465.912 62.3046 504.176 80.7177 504.176 80.7177C504.176 80.7177 708.997 -5.53336 785.524 0.281322C805.781 2.21955 846.295 31.2929 846.295 31.2929C846.295 31.2929 871.053 29.3547 877.806 31.2929C902.564 37.1076 929.574 67.1501 952.081 73.9339C972.339 79.7486 1019.6 76.8413 1037.61 84.5942C1057.87 92.3471 1096.13 130.142 1096.13 130.142C1096.13 130.142 1150.15 131.112 1168.16 134.019C1186.16 136.926 1231.18 152.432 1231.18 152.432C1231.18 152.432 1289.7 142.741 1309.96 143.71C1341.47 144.679 1436 164.061 1436 164.061V417H0V235.776Z" fill="#77994F"/>
</svg>
