<svg width="1321" height="135" viewBox="0 0 1321 135" fill="none" xmlns="http://www.w3.org/2000/svg">
<path d="M32.1875 3.4828C70.3313 0.571863 101.744 12.2156 139.888 3.4828C182.519 -5.25001 211.688 7.36402 252.075 10.275C213.931 13.1859 182.519 1.54215 144.375 10.275C101.744 19.0078 72.575 7.36405 32.1875 3.4828ZM1100.21 41.325C1138.36 38.414 1169.77 50.0578 1207.91 41.325C1250.54 32.5922 1279.71 45.2062 1320.1 48.1172C1281.96 51.0281 1250.54 39.3844 1212.4 48.1172C1169.77 56.85 1140.6 45.2062 1100.21 41.325ZM263.294 41.325C299.194 38.414 328.362 45.2062 364.262 47.1469C404.65 49.0875 436.062 43.2656 474.206 38.414C543.763 27.7406 595.369 48.1172 660.437 53.939C624.537 56.85 595.369 50.0578 559.469 48.1172C519.081 46.1765 487.669 51.9984 449.525 56.85C379.969 67.5234 328.363 47.1468 263.294 41.325ZM703.069 84.989C738.969 82.0781 768.138 88.8703 804.038 90.8109C844.425 92.7516 875.837 86.9297 913.981 82.0781C983.537 71.4047 1035.14 91.7812 1100.21 97.6031C1064.31 101.484 1035.14 93.7219 999.244 91.7812C958.856 89.8406 927.444 95.6625 889.3 100.514C819.744 111.187 768.138 90.8109 703.069 84.989ZM786.087 2.51247C839.937 -0.398472 887.056 16.0969 940.906 4.4531C1001.49 -7.19065 1044.12 9.30468 1100.21 13.1859C1046.36 16.0969 999.244 -0.398457 945.394 11.2453C887.056 22.889 844.425 5.4234 786.087 2.51247ZM999.244 121.861C1053.09 118.95 1100.21 135.445 1154.06 123.802C1214.64 112.158 1257.27 128.653 1313.37 132.534C1259.52 135.445 1212.4 118.95 1158.55 130.594C1100.21 142.237 1057.58 124.772 999.244 121.861ZM0.775024 114.098C54.625 111.187 101.744 127.683 155.594 116.039C213.931 104.395 258.806 120.891 314.9 124.772C261.05 127.683 213.931 111.187 160.081 122.831C101.744 134.475 59.1125 117.98 0.775024 114.098Z" fill="#B4D7EE"/>
</svg>
