<svg width="1434" height="122" viewBox="0 0 1434 122" fill="none" xmlns="http://www.w3.org/2000/svg">
<path d="M0 52.4438C0 52.4438 80.775 53.4141 168.281 67.9688C246.813 81.5531 381.438 102.9 448.75 102.9C464.456 102.9 502.6 98.0484 502.6 98.0484C502.6 98.0484 706.781 123.277 785.313 121.336C805.506 121.336 845.894 112.603 845.894 112.603C845.894 112.603 870.575 113.573 877.306 112.603C901.988 110.662 928.913 101.93 951.35 99.9891C971.544 98.0484 1018.66 99.0188 1036.61 97.0781C1056.81 95.1375 1094.95 83.4937 1094.95 83.4937C1094.95 83.4937 1148.8 83.4938 1166.75 82.5234C1184.7 81.5531 1229.58 77.6719 1229.58 77.6719C1229.58 77.6719 1287.91 80.5828 1308.11 80.5828C1339.52 80.5828 1433.76 74.7609 1433.76 74.7609V0.046875H0V52.4438Z" fill="#2B95BF"/>
</svg>
